<svg width="267" height="98" viewBox="0 0 267 98" fill="none" xmlns="http://www.w3.org/2000/svg">
<g clip-path="url(#clip0_2014_3)">
<path d="M173.25 18.5361L175.126 24.6154C175.887 27.085 174.142 29.6181 171.563 29.7862L170.271 29.8704C167.692 30.0385 165.947 32.5716 166.708 35.0412L167.09 36.2793C167.852 38.7488 166.107 41.2819 163.528 41.45L162.235 41.5343C159.656 41.7024 157.912 44.2354 158.673 46.705L159.055 47.9431C159.817 50.4127 158.072 52.9457 155.493 53.1138L154.2 53.1981C151.621 53.3662 149.876 55.8992 150.638 58.3688L152.514 64.4481" stroke="#DD3128" stroke-opacity="0.75" stroke-width="6" stroke-linecap="round"/>
<path d="M160.938 0L160.158 8.02051C159.784 11.879 155.903 14.3745 152.237 13.1146L151.803 12.9655C148.137 11.7056 144.256 14.201 143.881 18.0596L143.837 18.5161C143.462 22.3746 139.581 24.8701 135.915 23.6102L135.481 23.4611C131.815 22.2012 127.934 24.6967 127.559 28.5552L127.515 29.0117C127.14 32.8702 123.259 35.3657 119.593 34.1058L119.159 33.9567C115.493 32.6968 111.612 35.1923 111.237 39.0508L110.458 47.0713" stroke="#DD3128" stroke-opacity="0.75" stroke-width="7" stroke-linecap="round"/>
<circle cx="89.3724" cy="42.0766" r="3.2219" transform="rotate(177.258 89.3724 42.0766)" fill="#DD3128" fill-opacity="0.75"/>
<circle cx="182.472" cy="10.3786" r="2.50593" transform="rotate(177.258 182.472 10.3786)" fill="#DD3128" fill-opacity="0.75"/>
</g>
<defs>
<clipPath id="clip0_2014_3">
<rect width="267" height="98" fill="white"/>
</clipPath>
</defs>
</svg>
