<svg width="155" height="50" viewBox="0 0 155 50" fill="none" xmlns="http://www.w3.org/2000/svg">
<path d="M38.56 17.08C39.7467 17.08 40.8333 17.32 41.82 17.8C42.82 18.2667 43.32 18.8067 43.32 19.42C43.32 19.6867 43.2267 19.9133 43.04 20.1C42.8667 20.2867 42.6533 20.38 42.4 20.38C42.1467 20.38 41.8933 20.28 41.64 20.08C41.3867 19.88 41.14 19.66 40.9 19.42C40.6733 19.1667 40.3067 18.94 39.8 18.74C39.3067 18.54 38.72 18.44 38.04 18.44C36.52 18.44 35.32 18.92 34.44 19.88C33.5733 20.8267 33.14 22.12 33.14 23.76C33.14 25.3867 33.62 26.7933 34.58 27.98C35.54 29.1667 36.7533 29.76 38.22 29.76C39.7 29.76 41.0467 29.0533 42.26 27.64C42.5267 27.32 42.72 27.16 42.84 27.16C42.9733 27.16 43.0733 27.2067 43.14 27.3C43.22 27.38 43.26 27.5067 43.26 27.68C43.26 27.8533 43.12 28.1333 42.84 28.52C42.5733 28.8933 42.2067 29.28 41.74 29.68C41.2867 30.0667 40.6867 30.4067 39.94 30.7C39.2067 30.98 38.44 31.12 37.64 31.12C35.88 31.12 34.4133 30.4933 33.24 29.24C32.08 27.9867 31.5 26.3733 31.5 24.4C31.5 22.4133 32.1667 20.7 33.5 19.26C34.8467 17.8067 36.5333 17.08 38.56 17.08ZM47.185 26.3L47.345 29.92C47.345 30.28 47.2517 30.5733 47.065 30.8C46.8917 31.0133 46.6783 31.12 46.425 31.12C46.1717 31.12 45.965 31.02 45.805 30.82C45.645 30.6067 45.565 30.32 45.565 29.96C45.565 29.6 45.5983 29.0867 45.665 28.42C45.7983 27.0867 45.865 25.96 45.865 25.04C45.865 24.64 45.7383 24.26 45.485 23.9C45.245 23.5267 45.125 23.1933 45.125 22.9C45.125 22.6067 45.225 22.3667 45.425 22.18C45.625 21.98 45.8517 21.88 46.105 21.88C46.7717 21.88 47.105 22.4067 47.105 23.46V24.24C47.505 23.52 47.985 22.9467 48.545 22.52C49.105 22.0933 49.6183 21.88 50.085 21.88C50.5517 21.88 50.905 22 51.145 22.24C51.3983 22.4667 51.525 22.7733 51.525 23.16C51.525 23.5467 51.4317 23.8733 51.245 24.14C51.0583 24.3933 50.8583 24.52 50.645 24.52C50.4317 24.52 50.265 24.4667 50.145 24.36C50.0383 24.24 49.9583 24.12 49.905 24C49.8517 23.8667 49.7517 23.7467 49.605 23.64C49.4583 23.52 49.2717 23.46 49.045 23.46C48.6583 23.46 48.2717 23.7133 47.885 24.22C47.4983 24.7267 47.265 25.42 47.185 26.3ZM56.678 27.02L54.298 26.82C54.0713 26.82 53.8913 26.84 53.758 26.88C53.838 27.64 54.158 28.2733 54.718 28.78C55.2913 29.2867 55.9646 29.54 56.738 29.54C57.4846 29.54 58.158 29.2667 58.758 28.72C58.9713 28.5333 59.1313 28.44 59.238 28.44C59.3446 28.44 59.438 28.48 59.518 28.56C59.598 28.64 59.638 28.7267 59.638 28.82C59.638 29.2067 59.258 29.6867 58.498 30.26C57.7513 30.8333 56.898 31.12 55.938 31.12C54.9913 31.12 54.1646 30.7333 53.458 29.96C52.7646 29.1867 52.418 28.2267 52.418 27.08C52.418 25.6133 52.9713 24.38 54.078 23.38C55.1846 22.38 56.4046 21.88 57.738 21.88C58.298 21.88 58.7513 21.98 59.098 22.18C59.458 22.3667 59.638 22.6133 59.638 22.92C59.638 23.2133 59.5446 23.4533 59.358 23.64C59.1846 23.8267 59.0113 23.92 58.838 23.92C58.6646 23.92 58.3646 23.84 57.938 23.68C57.5246 23.52 57.1246 23.44 56.738 23.44C56.018 23.44 55.3913 23.66 54.858 24.1C54.338 24.5267 53.9913 25.06 53.818 25.7L56.578 25.54C57.1913 25.54 57.498 25.78 57.498 26.26C57.498 26.7667 57.2246 27.02 56.678 27.02ZM67.683 28.32C67.7763 28.56 67.9696 28.8867 68.263 29.3C68.5696 29.7 68.723 30.0267 68.723 30.28C68.723 30.5333 68.6563 30.74 68.523 30.9C68.3896 31.0467 68.2096 31.12 67.983 31.12C67.4363 31.12 66.9496 30.5533 66.523 29.42L66.363 28.98C65.683 30.4067 64.663 31.12 63.303 31.12C62.623 31.12 62.0563 30.9067 61.603 30.48C61.163 30.04 60.943 29.4933 60.943 28.84C60.943 27.8267 61.2896 26.9533 61.983 26.22C62.6763 25.4867 63.583 25.0933 64.703 25.04C64.4363 24.5733 64.1363 24.2267 63.803 24C63.483 23.76 63.1896 23.62 62.923 23.58C62.6563 23.54 62.403 23.52 62.163 23.52C61.9363 23.5067 61.7563 23.4533 61.623 23.36C61.4896 23.2667 61.423 23.0867 61.423 22.82C61.423 22.54 61.5296 22.3133 61.743 22.14C61.9696 21.9667 62.2363 21.88 62.543 21.88C63.4096 21.88 64.263 22.3133 65.103 23.18C65.943 24.0467 66.6763 25.4067 67.303 27.26L67.683 28.32ZM64.203 26.1C63.723 26.1 63.2896 26.26 62.903 26.58C62.5296 26.9 62.343 27.3133 62.343 27.82C62.343 28.3267 62.5096 28.7533 62.843 29.1C63.1896 29.4333 63.603 29.6 64.083 29.6C64.563 29.6 64.9763 29.4333 65.323 29.1C65.6696 28.7533 65.843 28.3467 65.843 27.88C65.843 27.5467 65.783 27.24 65.663 26.96C65.543 26.6667 65.4696 26.4867 65.443 26.42C65.0963 26.2067 64.683 26.1 64.203 26.1ZM70.5627 26.2L70.4227 22.86C70.4227 22.58 70.5093 22.3467 70.6827 22.16C70.8693 21.9733 71.0893 21.88 71.3427 21.88C71.596 21.88 71.8027 21.9733 71.9627 22.16C72.1227 22.3333 72.2027 22.5533 72.2027 22.82C72.2027 23.0867 72.196 23.2867 72.1827 23.42C72.956 22.3933 73.776 21.88 74.6427 21.88C75.656 21.88 76.3827 22.4867 76.8227 23.7C77.676 22.4867 78.596 21.88 79.5827 21.88C80.8493 21.88 81.6693 22.82 82.0427 24.7L82.7427 28.14C82.8093 28.46 82.9693 28.8 83.2227 29.16C83.476 29.5067 83.6027 29.84 83.6027 30.16C83.6027 30.4667 83.5027 30.7067 83.3027 30.88C83.116 31.04 82.8893 31.12 82.6227 31.12C82.0093 31.12 81.6093 30.5933 81.4227 29.54L80.6827 25.36C80.5893 24.7733 80.396 24.2933 80.1027 23.92C79.8093 23.5467 79.4293 23.36 78.9627 23.36C78.336 23.36 77.736 23.9 77.1627 24.98L77.8027 28.14C77.8693 28.46 78.0293 28.8 78.2827 29.16C78.536 29.5067 78.6627 29.84 78.6627 30.16C78.6627 30.4667 78.5627 30.7067 78.3627 30.88C78.176 31.04 77.9493 31.12 77.6827 31.12C77.0693 31.12 76.6693 30.5933 76.4827 29.54L75.7427 25.36C75.6493 24.8133 75.4227 24.3467 75.0627 23.96C74.7027 23.56 74.2693 23.36 73.7627 23.36C73.2693 23.36 72.8693 23.5533 72.5627 23.94C72.2693 24.3267 72.1093 24.7133 72.0827 25.1C72.0693 25.4733 72.0627 25.84 72.0627 26.2L72.2027 30.16C72.2027 30.44 72.1227 30.6733 71.9627 30.86C71.8027 31.0333 71.596 31.12 71.3427 31.12C71.0893 31.12 70.8693 31.0333 70.6827 30.86C70.5093 30.6733 70.4227 30.44 70.4227 30.16L70.5627 26.2ZM108.64 28.32C108.733 28.56 108.927 28.8867 109.22 29.3C109.527 29.7 109.68 30.0267 109.68 30.28C109.68 30.5333 109.613 30.74 109.48 30.9C109.347 31.0467 109.167 31.12 108.94 31.12C108.393 31.12 107.907 30.5533 107.48 29.42L107.32 28.98C106.64 30.4067 105.62 31.12 104.26 31.12C103.58 31.12 103.013 30.9067 102.56 30.48C102.12 30.04 101.9 29.4933 101.9 28.84C101.9 27.8267 102.247 26.9533 102.94 26.22C103.633 25.4867 104.54 25.0933 105.66 25.04C105.393 24.5733 105.093 24.2267 104.76 24C104.44 23.76 104.147 23.62 103.88 23.58C103.613 23.54 103.36 23.52 103.12 23.52C102.893 23.5067 102.713 23.4533 102.58 23.36C102.447 23.2667 102.38 23.0867 102.38 22.82C102.38 22.54 102.487 22.3133 102.7 22.14C102.927 21.9667 103.193 21.88 103.5 21.88C104.367 21.88 105.22 22.3133 106.06 23.18C106.9 24.0467 107.633 25.4067 108.26 27.26L108.64 28.32ZM105.16 26.1C104.68 26.1 104.247 26.26 103.86 26.58C103.487 26.9 103.3 27.3133 103.3 27.82C103.3 28.3267 103.467 28.7533 103.8 29.1C104.147 29.4333 104.56 29.6 105.04 29.6C105.52 29.6 105.933 29.4333 106.28 29.1C106.627 28.7533 106.8 28.3467 106.8 27.88C106.8 27.5467 106.74 27.24 106.62 26.96C106.5 26.6667 106.427 26.4867 106.4 26.42C106.053 26.2067 105.64 26.1 105.16 26.1ZM113.24 26.3L113.4 29.92C113.4 30.28 113.306 30.5733 113.12 30.8C112.946 31.0133 112.733 31.12 112.48 31.12C112.226 31.12 112.02 31.02 111.86 30.82C111.7 30.6067 111.62 30.32 111.62 29.96C111.62 29.6 111.653 29.0867 111.72 28.42C111.853 27.0867 111.92 25.96 111.92 25.04C111.92 24.64 111.793 24.26 111.54 23.9C111.3 23.5267 111.18 23.1933 111.18 22.9C111.18 22.6067 111.28 22.3667 111.48 22.18C111.68 21.98 111.906 21.88 112.16 21.88C112.826 21.88 113.16 22.4067 113.16 23.46V24.24C113.56 23.52 114.04 22.9467 114.6 22.52C115.16 22.0933 115.673 21.88 116.14 21.88C116.606 21.88 116.96 22 117.2 22.24C117.453 22.4667 117.58 22.7733 117.58 23.16C117.58 23.5467 117.486 23.8733 117.3 24.14C117.113 24.3933 116.913 24.52 116.7 24.52C116.486 24.52 116.32 24.4667 116.2 24.36C116.093 24.24 116.013 24.12 115.96 24C115.906 23.8667 115.806 23.7467 115.66 23.64C115.513 23.52 115.326 23.46 115.1 23.46C114.713 23.46 114.326 23.7133 113.94 24.22C113.553 24.7267 113.32 25.42 113.24 26.3ZM119.293 29.54C119.293 24.3533 119.259 21.2533 119.193 20.24C119.073 18.4 119.013 17.3267 119.013 17.02C119.013 16.7133 119.099 16.4667 119.273 16.28C119.459 16.0933 119.679 16 119.933 16C120.186 16 120.393 16.0933 120.553 16.28C120.713 16.4667 120.793 16.7 120.793 16.98C120.793 17.82 120.759 18.96 120.693 20.4C120.559 23.7867 120.493 26.3067 120.493 27.96C120.493 28.36 120.619 28.7467 120.873 29.12C121.139 29.48 121.273 29.8067 121.273 30.1C121.273 30.3933 121.173 30.64 120.973 30.84C120.773 31.0267 120.546 31.12 120.293 31.12C119.626 31.12 119.293 30.5933 119.293 29.54ZM124.97 24.34C124.383 24.9267 124.09 25.6467 124.09 26.5C124.09 27.3533 124.383 28.08 124.97 28.68C125.57 29.2667 126.29 29.56 127.13 29.56C127.983 29.56 128.696 29.2667 129.27 28.68C129.843 28.08 130.13 27.3533 130.13 26.5C130.13 25.6467 129.843 24.9267 129.27 24.34C128.696 23.7533 127.983 23.46 127.13 23.46C126.29 23.46 125.57 23.7533 124.97 24.34ZM125.77 31.12C124.916 31.12 124.203 30.7867 123.63 30.12C123.056 29.4533 122.77 28.62 122.77 27.62C122.77 26.6067 123.083 25.6333 123.71 24.7C124.336 23.7533 125.07 23.0467 125.91 22.58C126.75 22.1133 127.596 21.88 128.45 21.88C129.303 21.88 130.016 22.2133 130.59 22.88C131.163 23.5467 131.45 24.3867 131.45 25.4C131.45 26.4 131.136 27.3733 130.51 28.32C129.883 29.2533 129.15 29.9533 128.31 30.42C127.47 30.8867 126.623 31.12 125.77 31.12ZM135.017 26.3L135.177 29.92C135.177 30.28 135.084 30.5733 134.897 30.8C134.724 31.0133 134.51 31.12 134.257 31.12C134.004 31.12 133.797 31.02 133.637 30.82C133.477 30.6067 133.397 30.32 133.397 29.96C133.397 29.6 133.43 29.0867 133.497 28.42C133.63 27.0867 133.697 25.96 133.697 25.04C133.697 24.64 133.57 24.26 133.317 23.9C133.077 23.5267 132.957 23.1933 132.957 22.9C132.957 22.6067 133.057 22.3667 133.257 22.18C133.457 21.98 133.684 21.88 133.937 21.88C134.604 21.88 134.937 22.4067 134.937 23.46V24.24C135.337 23.52 135.817 22.9467 136.377 22.52C136.937 22.0933 137.45 21.88 137.917 21.88C138.384 21.88 138.737 22 138.977 22.24C139.23 22.4667 139.357 22.7733 139.357 23.16C139.357 23.5467 139.264 23.8733 139.077 24.14C138.89 24.3933 138.69 24.52 138.477 24.52C138.264 24.52 138.097 24.4667 137.977 24.36C137.87 24.24 137.79 24.12 137.737 24C137.684 23.8667 137.584 23.7467 137.437 23.64C137.29 23.52 137.104 23.46 136.877 23.46C136.49 23.46 136.104 23.7133 135.717 24.22C135.33 24.7267 135.097 25.42 135.017 26.3Z" fill="#DD3128"/>
<path d="M92.6569 36.8C92.4035 36.8 92.1769 36.7 91.9769 36.5C91.7902 36.3133 91.6969 36.04 91.6969 35.68C91.6969 35.6133 91.7569 35.1733 91.8769 34.36C92.0102 33.5467 92.0769 32.1867 92.0769 30.28C92.0769 28.3733 92.0435 26.6267 91.9769 25.04C91.9635 24.7333 91.8435 24.38 91.6169 23.98C91.4035 23.58 91.2969 23.2267 91.2969 22.92C91.2969 22.6133 91.3969 22.3667 91.5969 22.18C91.7969 21.98 92.0235 21.88 92.2769 21.88C92.9435 21.88 93.2769 22.4067 93.2769 23.46V24.4C93.8369 23.6267 94.5102 23.0133 95.2969 22.56C96.0969 22.1067 96.8369 21.88 97.5169 21.88C98.4102 21.88 99.1302 22.2133 99.6769 22.88C100.224 23.5333 100.497 24.3 100.497 25.18C100.497 26.06 100.324 26.88 99.9769 27.64C99.6302 28.4 99.1902 29.0267 98.6569 29.52C98.1235 30.0133 97.5569 30.4067 96.9569 30.7C96.3569 30.98 95.7835 31.12 95.2369 31.12C94.5969 31.12 94.2769 30.8067 94.2769 30.18C94.2769 29.9 94.3769 29.6933 94.5769 29.56C94.7769 29.4267 94.9769 29.36 95.1769 29.36C95.3769 29.36 95.5835 29.3933 95.7969 29.46C96.0235 29.5267 96.2302 29.56 96.4169 29.56C97.2169 29.56 97.8902 29.2667 98.4369 28.68C98.9835 28.08 99.2569 27.3533 99.2569 26.5C99.2569 25.6467 98.9835 24.9267 98.4369 24.34C97.8902 23.7533 97.2169 23.46 96.4169 23.46C95.3769 23.46 94.6102 23.88 94.1169 24.72C93.6369 25.56 93.3969 26.7067 93.3969 28.16C93.3969 28.9333 93.4502 30.1533 93.5569 31.82C93.6635 33.4867 93.7169 34.62 93.7169 35.22C93.7169 36.2733 93.3635 36.8 92.6569 36.8Z" fill="#F9C320"/>
<path d="M22.5 11C24.433 11 26 12.567 26 14.5C26 14.7268 25.9784 14.9485 25.9372 15.1633L25.9223 15.2294C27.7106 15.8247 29 17.5118 29 19.5C29 21.3741 27.8544 22.9806 26.2253 23.6574L25.1393 30.1644C25.0589 30.6466 24.6417 31 24.1529 31H13.8471C13.3583 31 12.9411 30.6466 12.8607 30.1644L11.832 23.994C10.2489 23.9037 9 22.5977 9 21C9 19.6926 9.83627 18.5806 11.0031 18.1696L11 18C11 14.6863 13.6863 12 17 12C17.9212 12 18.794 12.2076 19.574 12.5786C20.1984 11.6285 21.2758 11 22.5 11ZM16 24H13.86L14.694 29H16V24ZM20 24H18V29H20V24ZM24.139 24H22V29H23.305L24.139 24ZM17 14C14.8578 14 13.1089 15.684 13.0046 17.7675L12.9997 17.9639L13.0027 18.1336C13.0173 18.9413 12.5453 19.6726 11.8166 19.9967L11.6675 20.056C11.2712 20.1956 11 20.5722 11 21C11 21.5523 11.4477 22 12 22H24.5C25.8807 22 27 20.8807 27 19.5C27 18.1193 25.8807 17 24.5 17C24.1643 17 23.8417 17.0652 23.5442 17.1896L23.3688 17.2713C22.4021 17.7693 21.2253 17.4017 20.7059 16.4672L20.6362 16.3298C19.9876 14.9211 18.5778 14 17 14ZM22.5 13C21.9536 13 21.4755 13.2921 21.2132 13.7287C21.7264 14.2345 22.1481 14.8314 22.4529 15.4934C22.8966 15.2648 23.3838 15.1087 23.8988 15.0398C23.9645 14.8726 24 14.6905 24 14.5C24 13.6716 23.3284 13 22.5 13Z" fill="#F5C021"/>
<path d="M22.5 11C24.433 11 26 12.567 26 14.5C26 14.7268 25.9784 14.9485 25.9372 15.1633L25.9223 15.2294C27.7106 15.8247 29 17.5118 29 19.5C29 21.3741 27.8544 22.9806 26.2253 23.6574L25.1393 30.1644C25.0589 30.6466 24.6417 31 24.1529 31H13.8471C13.3583 31 12.9411 30.6466 12.8607 30.1644L11.832 23.994C10.2489 23.9037 9 22.5977 9 21C9 19.6926 9.83627 18.5806 11.0031 18.1696L11 18C11 14.6863 13.6863 12 17 12C17.9212 12 18.794 12.2076 19.574 12.5786C20.1984 11.6285 21.2758 11 22.5 11ZM16 24H13.86L14.694 29H16V24ZM20 24H18V29H20V24ZM24.139 24H22V29H23.305L24.139 24ZM17 14C14.8578 14 13.1089 15.684 13.0046 17.7675L12.9997 17.9639L13.0027 18.1336C13.0173 18.9413 12.5453 19.6726 11.8166 19.9967L11.6675 20.056C11.2712 20.1956 11 20.5722 11 21C11 21.5523 11.4477 22 12 22H24.5C25.8807 22 27 20.8807 27 19.5C27 18.1193 25.8807 17 24.5 17C24.1643 17 23.8417 17.0652 23.5442 17.1896L23.3688 17.2713C22.4021 17.7693 21.2253 17.4017 20.7059 16.4672L20.6362 16.3298C19.9876 14.9211 18.5778 14 17 14ZM22.5 13C21.9536 13 21.4755 13.2921 21.2132 13.7287C21.7264 14.2345 22.1481 14.8314 22.4529 15.4934C22.8966 15.2648 23.3838 15.1087 23.8988 15.0398C23.9645 14.8726 24 14.6905 24 14.5C24 13.6716 23.3284 13 22.5 13Z" fill="#F5C021"/>
<line x1="145.05" y1="9" x2="145.05" y2="36" stroke="white" stroke-width="0.1"/>
</svg>
