<svg width="190" height="188" viewBox="0 0 190 188" fill="none" xmlns="http://www.w3.org/2000/svg">
<path d="M32.1139 39.9519C25.5313 8.98345 62.4228 -12.3158 85.951 8.869C96.4731 18.3432 111.899 19.9645 124.161 12.885C151.58 -2.9451 183.237 25.5589 170.359 54.482C164.6 67.4168 167.825 82.5888 178.347 92.063C201.875 113.248 184.549 152.164 153.062 148.854C138.981 147.374 125.548 155.13 119.789 168.064C106.912 196.988 64.5464 192.535 57.9638 161.566C55.02 147.717 43.4931 137.338 29.4118 135.858C-2.07503 132.549 -10.9318 90.8809 16.4868 75.0508C28.7488 67.9713 35.0577 53.8014 32.1139 39.9519Z" fill="#E53166"/>
</svg>
